<?xml version="1.0" standalone="no"?>
<!DOCTYPE svg PUBLIC "-//W3C//DTD SVG 20010904//EN"
 "http://www.w3.org/TR/2001/REC-SVG-20010904/DTD/svg10.dtd">
<svg version="1.0" xmlns="http://www.w3.org/2000/svg"
 width="256.000000pt" height="256.000000pt" viewBox="0 0 256.000000 256.000000"
 preserveAspectRatio="xMidYMid meet" background-color="#FFFFFF">
< transform="translate(0.000000,256.000000) scale(0.100000,-0.100000)"
fill="#1B59AD" stroke="none">
<path d="M510 2534 c-178 -38 -348 -170 -429 -334 -73 -149 -72 -139 -69 -964
l3 -731 28 -79 c36 -103 68 -156 140 -232 75 -81 151 -131 251 -166 l81 -28
775 0 775 0 80 28 c97 34 152 68 228 140 76 73 125 148 159 246 l28 81 0 771
c0 676 -2 777 -16 825 -48 164 -173 314 -324 388 -146 71 -137 71 -935 70
-568 0 -723 -3 -775 -15z m1051 -690 c96 -102 175 -192 177 -199 2 -7 -1 -16
-7 -19 -5 -3 -186 -29 -403 -56 -216 -27 -400 -52 -408 -54 -8 -2 199 -4 460
-5 352 -1 480 -5 496 -14 11 -7 71 -65 132 -129 89 -93 112 -123 112 -145 0
-23 -43 -73 -222 -263 -121 -129 -229 -239 -238 -244 -10 -4 -24 -4 -33 0 -8
5 -96 97 -197 204 -282 302 -278 300 -119 55 78 -121 151 -234 161 -252 l19
-32 -83 -89 c-91 -97 -115 -115 -141 -101 -9 6 -157 159 -328 342 -172 183
-317 337 -322 342 -16 16 -1 -7 121 -195 163 -248 202 -310 198 -310 -1 0
-111 115 -242 256 -172 184 -240 263 -242 282 -2 23 32 64 234 280 190 201
243 252 263 252 19 0 40 -15 74 -52 l48 -53 -3 46 -3 47 138 146 c98 103 145
146 161 146 16 0 72 -52 197 -186z"/>
</g>
</svg>
